<?xml version="1.0" encoding="UTF-8"?>
<svg width="49px" height="49px" viewBox="0 0 49 49" version="1.1" xmlns="http://www.w3.org/2000/svg" xmlns:xlink="http://www.w3.org/1999/xlink">
    <!-- Generator: Sketch 49.3 (51167) - http://www.bohemiancoding.com/sketch -->
    <title>Group 2 Copy</title>
    <desc>Created with Sketch.</desc>
    <defs></defs>
    <g id="Page-1" stroke="none" stroke-width="1" fill="none" fill-rule="evenodd">
        <g id="d/connect-one-page-2-" transform="translate(-335.000000, -1026.000000)">
            <g id="Group-2-Copy" transform="translate(335.000000, 1026.000000)">
                <circle id="Oval-5" fill="#FFFFFF" cx="24.5" cy="24.5" r="24.5"></circle>
                <g id="Page-1" transform="translate(6.573171, 7.768293)" fill="#DC572D">
                    <path d="M8.96694024,14.9680659 L8.4147939,15.5202122 L4.65255,11.7579683 L5.20469634,11.205822 C5.28536707,11.1257488 5.41085488,11.1251512 5.49152561,11.205822 L8.96694024,14.6818341 C9.04044024,14.7553341 9.04044024,14.8079195 9.04044024,14.8252488 C9.04044024,14.8527366 9.04044024,14.8945659 8.96694024,14.9680659 Z M23.4326963,29.4852122 L22.88055,30.0373585 L19.1696963,26.3259073 L19.7218427,25.773761 C19.8025134,25.6942854 19.9274037,25.6930902 20.008672,25.773761 L23.4506232,29.2127244 C23.4846841,29.2551512 23.5510134,29.3668951 23.4326963,29.4852122 Z M21.3059768,24.4244683 C20.5112207,23.6297122 19.1159159,23.6303098 18.3211598,24.4244683 L17.0949646,25.651261 C16.774672,25.9709561 16.382672,26.1334927 15.9285256,26.1334927 C15.4618305,26.1334927 15.0184402,25.9578098 14.7136841,25.6524561 L9.03864756,19.9266268 C8.71417195,19.6021512 8.55641585,19.2041756 8.55641585,18.7099927 C8.55641585,18.2158098 8.71417195,17.8178341 9.03864756,17.4933585 L10.2654402,16.2665659 C10.67955,15.8524561 10.9078183,15.3224195 10.9078183,14.7738585 C10.9078183,14.156578 10.6765622,13.6325171 10.2654402,13.2811512 L6.78942805,9.80573659 C6.41415976,9.42987073 5.86918415,9.21415122 5.29672073,9.21415122 C4.72365976,9.21415122 4.17987927,9.42987073 3.7980378,9.81230976 L2.5730378,11.0875049 C0.678769512,13.0367488 -0.219364634,15.8291512 0.045354878,18.9549927 C0.15709878,20.183578 0.711635366,21.3524073 1.60678171,22.2469561 L12.4429524,33.0831268 C13.3369037,33.9782732 14.506928,34.5328098 15.7122085,34.6415659 C16.1012207,34.6977366 16.4878427,34.6977366 16.7979768,34.6977366 C19.4726598,34.6977366 21.8073305,33.8049805 23.5551963,32.1120902 L24.7825866,30.8858951 C25.1937085,30.4741756 25.4225744,29.9082854 25.4118183,29.3322366 C25.4004646,28.7759073 25.1751841,28.2661878 24.776611,27.8945049 L21.3059768,24.4244683 Z" id="Fill-1"></path>
                    <path d="M18.7198524,20.400672 C18.5387915,20.5255622 18.3326329,20.5865134 18.088828,20.5865134 C17.8223159,20.5865134 17.5874744,20.5100256 17.3717549,20.3522695 C17.1536451,20.1939159 16.9773646,19.9674402 16.848889,19.6812085 C16.63795,19.18105 16.2973402,19.0758793 16.0487549,19.0758793 C15.8336329,19.0758793 15.6513768,19.1547573 15.5073646,19.308928 C15.3669378,19.4607085 15.295828,19.6268305 15.295828,19.803111 C15.295828,20.0528915 15.3842671,20.3433061 15.55995,20.6665866 C15.736828,20.9916598 16.0374012,21.2808793 16.4527061,21.5264768 C16.868011,21.772672 17.4117915,21.8969646 18.0679134,21.8969646 C18.6571085,21.8969646 19.1853524,21.7660988 19.6389012,21.5067573 C20.0936451,21.2468183 20.4474012,20.8900744 20.690011,20.4466841 C20.9302305,20.0056841 21.0521329,19.5109037 21.0521329,18.9760866 C21.0521329,18.6050012 20.984011,18.2524402 20.8501573,17.9279646 C20.7157061,17.603489 20.528072,17.31905 20.293828,17.0830134 C20.0589866,16.8463793 19.7823159,16.6581476 19.470389,16.5236963 C18.8339866,16.2494159 18.0995841,16.2320866 17.2701695,16.6079524 L17.4990354,15.3052695 L19.891072,15.3052695 C20.1874622,15.3052695 20.4193159,15.2359524 20.5806573,15.1003061 C20.7491695,14.9580866 20.8352183,14.7698549 20.8352183,14.540989 C20.8352183,14.2499768 20.7085354,13.761172 19.8588037,13.761172 L17.0616207,13.761172 C16.7162305,13.761172 16.4598768,13.845428 16.2967427,14.0127451 C16.1395841,14.1740866 16.0362061,14.4166963 15.9812305,14.7537207 L15.5360476,17.2921598 C15.4756939,17.6387451 15.4756939,17.6590622 15.4756939,17.6781841 C15.4756939,17.8795622 15.5593524,18.059428 15.7242793,18.2135988 C16.0362061,18.504611 16.4114744,18.5667573 16.9839378,18.1341232 C17.2223646,17.9530622 17.4076085,17.8257817 17.5330963,17.754672 C17.6059988,17.7128427 17.7655476,17.6632451 18.1103402,17.6632451 C18.3296451,17.6632451 18.5310232,17.7158305 18.7073037,17.8198061 C18.8847793,17.9243793 19.024011,18.0803427 19.131572,18.2960622 C19.2409256,18.514172 19.2964988,18.783672 19.2964988,19.097989 C19.2964988,19.3901963 19.244511,19.6531232 19.1429256,19.8795988 C19.0431329,20.1006963 18.9009134,20.2763793 18.7198524,20.400672" id="Fill-4"></path>
                    <path d="M28.4560329,17.3857378 L26.6705207,17.3857378 C26.4177524,17.3857378 26.2115939,17.4556524 26.0586183,17.593689 C25.9008622,17.735311 25.8213866,17.9169695 25.8213866,18.1338841 C25.8213866,18.4673232 25.9839232,18.6328476 26.1201671,18.7129207 C26.2952524,18.8157012 26.5372646,18.8658963 26.8611427,18.8658963 L27.9301793,18.8658963 L27.9301793,19.8877256 C27.6385695,20.0389085 27.3475573,20.1584207 27.064911,20.2426768 C26.7601549,20.3335061 26.4291061,20.3795183 26.0819232,20.3795183 C25.3726183,20.3795183 24.8366061,20.1560305 24.4446061,19.695311 C24.051411,19.2345915 23.8518256,18.5593476 23.8518256,17.6887012 C23.8518256,17.2865427 23.9038134,16.9142622 24.0065939,16.5832134 C24.1081793,16.2569451 24.2557768,15.9796768 24.4446061,15.7585793 C24.6316427,15.5386768 24.8605085,15.368372 25.1240329,15.2524451 C25.3905451,15.1359207 25.6988866,15.0773598 26.0394963,15.0773598 C26.36935,15.0773598 26.6418378,15.1257622 26.8479963,15.2219695 C27.0559476,15.319372 27.2220695,15.4382866 27.3415817,15.5769207 C27.4700573,15.7257134 27.6319963,15.952189 27.8268012,16.2569451 C27.9116549,16.3704817 28.0168256,16.4601159 28.1411183,16.5234573 C28.4894963,16.7003354 28.8940451,16.6280305 29.1659354,16.368689 C29.3422159,16.2001768 29.4324476,15.9934207 29.4324476,15.7543963 C29.4324476,15.5464451 29.3619354,15.3104085 29.2233012,15.0534573 C29.0876549,14.800689 28.8856793,14.559872 28.6209598,14.3363841 C28.3574354,14.1140915 28.0120451,13.9276524 27.5931549,13.7824451 C27.1766549,13.6384329 26.693228,13.5649329 26.1560207,13.5649329 C25.5052768,13.5649329 24.9136915,13.6617378 24.3979963,13.8523598 C23.8787159,14.0441768 23.4311427,14.3262256 23.0666305,14.6895427 C22.7033134,15.0534573 22.4242524,15.501628 22.2372159,16.0221037 C22.051972,16.5372012 21.9581549,17.1120549 21.9581549,17.731128 C21.9581549,18.3603598 22.0549598,18.9399939 22.2455817,19.4527012 C22.4385939,19.9689939 22.7176549,20.4147744 23.0773866,20.7768963 C23.4365207,21.140811 23.8781183,21.4216646 24.3866427,21.6122866 C24.8927768,21.8011159 25.4592646,21.8973232 26.0717646,21.8973232 C26.5946305,21.8973232 27.085228,21.8369695 27.5298134,21.7174573 C27.9738012,21.5979451 28.4404963,21.4067256 28.9197402,21.1479817 C29.0918378,21.0535671 29.2364476,20.9537744 29.3493866,20.8509939 C29.4724841,20.7380549 29.5585329,20.6089817 29.6045451,20.4673598 C29.6487646,20.3329085 29.6702768,20.1626037 29.6702768,19.9462866 L29.6702768,18.4571646 C29.6702768,18.1547988 29.6153012,17.9289207 29.5035573,17.7669817 C29.3888256,17.6038476 29.23585,17.4968841 29.049411,17.4484817 C28.8856793,17.4066524 28.6860939,17.3857378 28.4560329,17.3857378 Z" id="Fill-6"></path>
                    <path d="M31.3935232,3.92513902 C28.6913524,1.35204146 25.448389,0.0882 21.6891329,-0.00023902439 C21.2224378,0.0278463415 20.7210841,0.038004878 20.2269012,0.0917853659 C17.7804866,0.342163415 15.4446207,1.24089512 13.4607183,2.69476098 C12.9617549,3.07002927 12.4831085,3.47099268 12.0247793,3.89526098 C12.0014744,3.91498049 11.9793646,3.93649268 11.9578524,3.95800488 C11.5837793,4.3482122 11.596328,4.96728537 11.9859378,5.34135854 C12.0038646,5.36167561 12.0217915,5.38139512 12.0409134,5.40051707 C12.4257427,5.78415122 13.0489988,5.78415122 13.4326329,5.39932195 C13.55095,5.29355366 13.6650841,5.17941951 13.7845963,5.0754439 C16.5315841,2.71089512 19.7040354,1.7022122 23.3055354,2.17249268 C25.8212671,2.49637073 28.162511,3.63352927 29.971328,5.41127317 C30.3710963,5.78176098 30.9937549,5.76383415 31.372011,5.37123659 C31.793889,4.9254561 31.8076329,4.32490732 31.3935232,3.92513902" id="Fill-8"></path>
                    <path d="M21.7029963,3.81106463 C18.9601915,3.86723537 16.5896671,4.80899146 14.6111427,6.70385732 C14.4778866,6.83412561 14.3798866,6.99606463 14.324911,7.17354024 C14.1976305,7.64202805 14.4121549,8.13561341 14.8412037,8.36208902 C15.2445573,8.58378415 15.7477037,8.50132073 16.0596305,8.1619061 C18.0877524,6.27600366 20.4887524,5.52785732 23.223789,6.02383293 C24.7941793,6.31723537 26.2402768,7.07554024 27.3744476,8.20015 C27.6714354,8.49175976 28.1225939,8.55749146 28.4906915,8.36447927 C28.6311183,8.29815 28.7548134,8.20134512 28.8528134,8.08123537 C29.2173256,7.63425976 29.1515939,6.97694268 28.7052159,6.61183293 C26.8079598,4.82871098 24.3065695,3.82779634 21.7029963,3.81106463" id="Fill-11"></path>
                    <path d="M17.5218622,11.1889707 C17.9174476,11.3598732 18.3775695,11.2582878 18.6643988,10.9368 C18.6745573,10.9266415 18.6847159,10.9164829 18.695472,10.9057268 C20.376411,9.24689756 23.0851549,9.26542195 24.7439841,10.9469585 C24.7457768,10.9493488 24.7481671,10.9511415 24.7499598,10.9529341 C25.1270207,11.3467268 25.7508744,11.3598732 26.1446671,10.9828122 C26.6083744,10.5226902 26.6322768,9.92692195 26.1906793,9.49070244 C24.9459598,8.26211707 23.4395085,7.65977561 21.5990207,7.61197073 C21.3749354,7.63408049 21.0486671,7.64782439 20.724789,7.70220244 C19.3396427,7.9017878 18.0650451,8.57045854 17.113728,9.59647073 C16.9834598,9.75542195 16.9045817,9.95022683 16.8872524,10.1545927 C16.86335,10.5979829 17.1161183,11.0091049 17.5218622,11.1889707" id="Fill-13"></path>
                </g>
            </g>
        </g>
    </g>
</svg>