<?xml version="1.0" encoding="UTF-8"?>
<svg width="49px" height="49px" viewBox="0 0 49 49" version="1.1" xmlns="http://www.w3.org/2000/svg" xmlns:xlink="http://www.w3.org/1999/xlink">
    <!-- Generator: Sketch 49.3 (51167) - http://www.bohemiancoding.com/sketch -->
    <title>Group 9</title>
    <desc>Created with Sketch.</desc>
    <defs></defs>
    <g id="Page-1" stroke="none" stroke-width="1" fill="none" fill-rule="evenodd">
        <g id="d/connect-one-page-2-" transform="translate(-741.000000, -1026.000000)">
            <g id="Group-9" transform="translate(741.000000, 1026.000000)">
                <circle id="Oval-5" fill="#FFFFFF" cx="24.5" cy="24.5" r="24.5"></circle>
                <g id="Page-1" transform="translate(11.353659, 4.780488)" fill="#DC572D">
                    <path d="M21.7920329,28.9017537 C20.7761793,28.9017537 19.9539354,28.0789122 19.9539354,27.0636561 C19.9539354,26.0484 20.7761793,25.2255585 21.7920329,25.2255585 C22.8066915,25.2255585 23.6295329,26.0484 23.6295329,27.0636561 C23.6295329,28.0783146 22.8066915,28.9017537 21.7920329,28.9017537 M16.5890695,27.8876927 L13.5648134,27.8876927 L12.6577159,27.8876927 L9.63405732,27.8876927 C9.24922805,27.8876927 8.93670366,27.4927049 8.93670366,27.0050951 C8.93670366,26.5180829 9.24922805,26.1224976 9.63405732,26.1224976 L12.6577159,26.1224976 L13.5648134,26.1224976 L16.5890695,26.1224976 C16.9738988,26.1224976 17.2858256,26.5180829 17.2858256,27.0050951 C17.2858256,27.4927049 16.9738988,27.8876927 16.5890695,27.8876927 M4.41316707,28.9017537 C3.39671585,28.9017537 2.57447195,28.0789122 2.57447195,27.0636561 C2.57447195,26.0484 3.39671585,25.2255585 4.41316707,25.2255585 C5.42722805,25.2255585 6.25066707,26.0484 6.25066707,27.0636561 C6.25066707,28.0783146 5.42722805,28.9017537 4.41316707,28.9017537 M4.83026463,20.3626073 C6.9300939,16.841778 7.54080122,16.2233024 8.91339878,16.2233024 L12.5310329,16.2233024 L13.6789476,16.2233024 L17.2977768,16.2233024 C18.6697768,16.2233024 19.2804841,16.841778 21.380911,20.3626073 C21.9450085,21.3091439 22.3686793,22.2329732 22.6746305,23.0629854 L13.6789476,23.0629854 L12.5310329,23.0629854 L3.53654512,23.0629854 C3.84189878,22.2329732 4.26616707,21.3091439 4.83026463,20.3626073 M26.2109963,20.4594122 C26.2109963,19.8989 25.75685,19.4447537 25.1957402,19.4447537 L23.3988744,19.4447537 C23.3582402,19.3736439 23.3170085,19.3031317 23.2745817,19.2326195 C21.1741549,15.7099976 20.0411793,14.0171073 17.2977768,14.0171073 L13.6789476,14.0171073 L12.5310329,14.0171073 L8.91339878,14.0171073 C6.16820366,14.0171073 5.03642317,15.7099976 2.93539878,19.2326195 C2.89356951,19.3031317 2.8523378,19.3736439 2.81170366,19.4447537 L1.01424024,19.4447537 C0.454923171,19.4447537 0.000179268293,19.8989 0.000179268293,20.4594122 C0.000179268293,21.020522 0.454923171,21.4740707 1.01424024,21.4740707 L1.79465488,21.4740707 C1.01961829,23.2882659 0.661679268,24.9345463 0.661679268,25.9754976 L0.661679268,34.1829976 C0.661679268,34.3766073 0.71187439,34.5582659 0.799715854,34.7166195 C1.01961829,35.3309122 1.60463049,35.7713146 2.29481341,35.7713146 C3.17143537,35.7713146 3.88313049,35.0602171 3.88313049,34.1829976 L3.88313049,32.5940829 L12.5310329,32.5940829 L13.6789476,32.5940829 L22.3274476,32.5940829 L22.3274476,34.1824 C22.3274476,35.0602171 23.0391427,35.7707171 23.9157646,35.7707171 C24.6059476,35.7707171 25.1909598,35.3303146 25.4108622,34.716022 C25.4981061,34.5576683 25.5488988,34.3760098 25.5488988,34.1824 L25.5488988,25.9754976 C25.5488988,24.9345463 25.1903622,23.2882659 24.4165207,21.4746683 L25.1957402,21.4746683 C25.75685,21.4740707 26.2109963,21.020522 26.2109963,20.4594122" id="Fill-1"></path>
                    <path d="M3.14364878,5.57823171 C3.54102683,5.9750122 4.1846,5.97441463 4.58138049,5.57763415 C4.70328293,5.46768293 4.82100244,5.34996341 4.94529512,5.24240244 C7.78251463,2.80017073 11.059539,1.75862195 14.7793561,2.24384146 C17.3781488,2.57847561 19.7958805,3.75328049 21.6644537,5.58958537 C22.0773683,5.97202439 22.7203439,5.9535 23.1111488,5.54835366 C23.5467707,5.08763415 23.5611122,4.46736585 23.1338561,4.05445122 C20.3420512,1.3965 16.9921244,0.0908292683 13.1097707,0 C12.6281366,0.0286829268 12.1094537,0.0388414634 11.5991366,0.0950121951 C9.07145366,0.353756098 6.6591,1.28176829 4.61066098,2.78343902 C4.09496585,3.1712561 3.60018537,3.58536585 3.12691707,4.02337805 C3.10301463,4.04429268 3.07970976,4.06580488 3.0576,4.0885122 C2.67157561,4.49126829 2.68472195,5.13065854 3.08747805,5.51728049 C3.10540488,5.53819512 3.12392927,5.5585122 3.14364878,5.57823171" id="Fill-4"></path>
                    <path d="M20.1352951,8.63953659 C20.2799049,8.57141463 20.4077829,8.47102439 20.5087707,8.34732927 C20.8858317,7.8860122 20.8177098,7.20658537 20.3563927,6.82952439 C18.3969902,4.9872439 15.8137341,3.95406098 13.1241122,3.93613415 C10.2910756,3.99469512 7.84227073,4.96752439 5.7986122,6.92453659 C5.66117317,7.0589878 5.5595878,7.22630488 5.50281951,7.41035366 C5.3713561,7.89378049 5.59305122,8.4035 6.03644146,8.6377439 C6.45353902,8.86660976 6.97281951,8.78115854 7.29490488,8.4309878 C9.38995366,6.48234146 11.8692341,5.70969512 14.6945024,6.22180488 C16.3162829,6.52536585 17.8101854,7.30817073 18.9820024,8.47042683 C19.2891488,8.771 19.7546488,8.83912195 20.1352951,8.63953659" id="Fill-7"></path>
                    <path d="M12.1134573,7.95562805 C10.6828963,8.16178659 9.36587195,8.85256707 8.38348171,9.91264024 C8.24903049,10.076372 8.16716463,10.27775 8.15043293,10.4892866 C8.12533537,10.9464207 8.38646951,11.3718841 8.80535976,11.557128 C9.2134939,11.7334085 9.68855488,11.6288354 9.98494512,11.297189 C9.99570122,11.2864329 10.0064573,11.2756768 10.0172134,11.2655183 C11.7537256,9.55171341 14.5515061,9.5702378 16.265311,11.3073476 C16.2671037,11.3097378 16.2694939,11.3115305 16.2712866,11.3139207 C16.6602988,11.7202622 17.3050671,11.7340061 17.7114085,11.3443963 C18.1906524,10.8693354 18.2151524,10.2538476 17.7592134,9.80328659 C16.4732622,8.53406707 14.917811,7.9120061 13.016372,7.8630061 C12.7851159,7.88511585 12.4480915,7.90005488 12.1134573,7.95562805" id="Fill-9"></path>
                </g>
            </g>
        </g>
    </g>
</svg>