<?xml version="1.0" encoding="UTF-8"?>
<svg width="49px" height="49px" viewBox="0 0 49 49" version="1.1" xmlns="http://www.w3.org/2000/svg" xmlns:xlink="http://www.w3.org/1999/xlink">
    <!-- Generator: Sketch 49.3 (51167) - http://www.bohemiancoding.com/sketch -->
    <title>Group 8</title>
    <desc>Created with Sketch.</desc>
    <defs></defs>
    <g id="Page-1" stroke="none" stroke-width="1" fill="none" fill-rule="evenodd">
        <g id="d/connect-one-page-2-" transform="translate(-640.000000, -1026.000000)">
            <g id="Group-8" transform="translate(640.000000, 1026.000000)">
                <circle id="Oval-5" fill="#FFFFFF" cx="24.5" cy="24.5" r="24.5"></circle>
                <g id="Page-1" transform="translate(8.365854, 5.378049)" fill="#DC572D">
                    <path d="M18.8356,5.4473061 L22.358222,2.36090366 L25.6256854,6.08968415 L22.103661,9.17668415 L18.8356,5.4473061 Z M28.7873805,17.2467451 C26.5740146,15.0333793 22.9737098,15.0333793 20.7591488,17.2467451 L8.30299024,29.7023061 C6.90230732,31.102989 4.44573415,31.102989 3.04564878,29.7023061 C1.59596585,28.2532207 1.59596585,25.89405 3.04564878,24.4449646 L8.35318537,19.137428 L8.51273415,19.3202817 C8.85453902,19.7110866 9.50050244,19.7559037 9.89549024,19.411111 L11.6571,17.8682085 L11.7712341,17.9984768 C12.1136366,18.3886841 12.7590024,18.4340988 13.1539902,18.0893061 L14.9150024,16.5470012 L15.788039,17.5437329 C16.131039,17.9339402 16.7770024,17.9787573 17.1707951,17.6345622 L23.4159049,12.1626963 C23.6131,11.9911963 23.7314171,11.752172 23.7487463,11.4898427 C23.7660756,11.2275134 23.6800268,10.9753427 23.5079293,10.7799402 L23.3937951,10.649672 L27.6538073,6.9173061 C27.8516,6.7458061 27.9699171,6.50618415 27.9866488,6.24445244 C28.0045756,5.98272073 27.9185268,5.72995244 27.7458317,5.53455 L23.1864415,0.332184146 C22.8314902,-0.0723646341 22.2106244,-0.11299878 21.8048805,0.241952439 L17.5454659,3.97431829 L17.4307341,3.84405 C17.2592341,3.64805 17.0214049,3.53033049 16.7602707,3.51240366 C16.4991366,3.49387927 16.2451732,3.57992805 16.047978,3.75322073 L9.80227073,9.22508659 C9.60866098,9.39539146 9.4873561,9.64039146 9.47062439,9.89734268 C9.45329512,10.1542939 9.54113659,10.4136354 9.7108439,10.6078427 L10.5850756,11.6045744 L8.82346585,13.1474768 C8.62686829,13.320172 8.50914878,13.5591963 8.49181951,13.8191354 C8.47449024,14.0802695 8.55994146,14.3324402 8.73263659,14.5302329 L8.84677073,14.6599037 L7.08516098,16.2040012 C6.67881951,16.5601476 6.63818537,17.1804159 6.99433171,17.5861598 L7.05946585,17.6602573 L1.65990488,23.0592207 C-0.553460976,25.2725866 -0.553460976,28.8746841 1.65990488,31.08805 C3.87327073,33.3008183 7.47477073,33.3008183 9.68873415,31.08805 L22.1442951,18.6318915 C23.5945756,17.181611 25.9531488,17.1828061 27.4022341,18.6318915 C28.8519171,20.0815744 28.8519171,22.4401476 27.4022341,23.8898305 L14.9460756,36.345989 C14.5642341,36.7278305 14.5642341,37.3486963 14.945478,37.7305378 C15.1295268,37.9163793 15.375722,38.0185622 15.6380512,38.0185622 C15.8991854,38.0185622 16.1447829,37.9169768 16.3318195,37.732928 L28.7873805,25.2767695 C30.9995512,23.0628061 30.9995512,19.4607085 28.7873805,17.2467451 Z" id="Fill-1"></path>
                    <polygon id="Fill-4" points="23.8862451 6.54819268 22.9558427 5.48871707 21.8963671 6.41732683 22.8267695 7.4774"></polygon>
                    <polygon id="Fill-6" points="21.6348744 4.06048659 20.5753988 4.9896939 21.5046061 6.04916951 22.5652768 5.1199622"></polygon>
                </g>
            </g>
        </g>
    </g>
</svg>