<?xml version="1.0" encoding="UTF-8"?>
<svg width="49px" height="49px" viewBox="0 0 49 49" version="1.1" xmlns="http://www.w3.org/2000/svg" xmlns:xlink="http://www.w3.org/1999/xlink">
    <!-- Generator: Sketch 49.3 (51167) - http://www.bohemiancoding.com/sketch -->
    <title>Group 7</title>
    <desc>Created with Sketch.</desc>
    <defs>
        <polygon id="path-1" points="0 34.3090829 27.4991585 34.3090829 27.4991585 0.000119512195 0 0.000119512195"></polygon>
    </defs>
    <g id="Page-1" stroke="none" stroke-width="1" fill="none" fill-rule="evenodd">
        <g id="d/connect-one-page-2-" transform="translate(-234.000000, -1026.000000)">
            <g id="Group-7" transform="translate(234.000000, 1026.000000)">
                <circle id="Oval-5" fill="#FFFFFF" cx="24.5" cy="24.5" r="24.5"></circle>
                <g id="Page-1" transform="translate(10.756098, 7.170732)">
                    <path d="M20.4735146,13.3643317 C20.4735146,13.8166854 20.8398195,14.1835878 21.2921732,14.1835878 C21.7451244,14.1835878 22.1114293,13.8166854 22.1114293,13.3643317 C22.1114293,12.911978 21.7451244,12.5450756 21.2921732,12.5450756 C20.8398195,12.5450756 20.4735146,12.911978 20.4735146,13.3643317 Z" id="Fill-1" fill="#DC572D"></path>
                    <mask id="mask-2" fill="white">
                        <use xlink:href="#path-1"></use>
                    </mask>
                    <g id="Clip-4"></g>
                    <polygon id="Fill-3" fill="#DC572D" mask="url(#mask-2)" points="5.72821951 14.1832293 17.1966098 14.1832293 17.1966098 12.5447171 5.72821951 12.5447171"></polygon>
                    <polygon id="Fill-5" fill="#DC572D" mask="url(#mask-2)" points="5.72821951 23.6701073 7.36613415 23.6701073 7.36613415 21.535022 5.72821951 21.535022"></polygon>
                    <polygon id="Fill-6" fill="#DC572D" mask="url(#mask-2)" points="8.78235366 23.6701073 10.4208659 23.6701073 10.4208659 21.535022 8.78235366 21.535022"></polygon>
                    <polygon id="Fill-7" fill="#DC572D" mask="url(#mask-2)" points="17.4189024 23.6701073 19.0568171 23.6701073 19.0568171 21.535022 17.4189024 21.535022"></polygon>
                    <polygon id="Fill-8" fill="#DC572D" mask="url(#mask-2)" points="20.4736341 23.6701073 22.1115488 23.6701073 22.1115488 21.535022 20.4736341 21.535022"></polygon>
                    <path d="M13.9201232,23.0800159 C13.649428,23.0800159 13.428928,22.8595159 13.428928,22.5882232 C13.428928,22.317528 13.649428,22.097028 13.9201232,22.097028 C14.1908183,22.097028 14.4113183,22.317528 14.4113183,22.5882232 C14.4113183,22.8595159 14.1908183,23.0800159 13.9201232,23.0800159 M13.9201232,20.9736134 C13.0297573,20.9736134 12.3055134,21.6978573 12.3055134,22.5882232 C12.3055134,23.478589 13.0297573,24.2034305 13.9201232,24.2034305 C14.810489,24.2034305 15.5347329,23.478589 15.5347329,22.5882232 C15.5347329,21.6978573 14.810489,20.9736134 13.9201232,20.9736134" id="Fill-9" fill="#DC572D" mask="url(#mask-2)"></path>
                    <polygon id="Fill-10" fill="#DC572D" mask="url(#mask-2)" points="5.72821951 4.91505854 17.1966098 4.91505854 17.1966098 3.27654634 5.72821951 3.27654634"></polygon>
                    <path d="M20.4735146,4.09604146 C20.4735146,4.54839512 20.8398195,4.91529756 21.2921732,4.91529756 C21.7451244,4.91529756 22.1114293,4.54839512 22.1114293,4.09604146 C22.1114293,3.6436878 21.7451244,3.27678537 21.2921732,3.27678537 C20.8398195,3.27678537 20.4735146,3.6436878 20.4735146,4.09604146 Z" id="Fill-11" fill="#DC572D" mask="url(#mask-2)"></path>
                    <path d="M4.09030488,25.009839 L23.750061,25.009839 L23.750061,20.0949 L4.09030488,20.0949 L4.09030488,25.009839 Z M4.09030488,15.8217415 L23.750061,15.8217415 L23.750061,10.9068024 L4.09030488,10.9068024 L4.09030488,15.8217415 Z M4.09030488,6.55357073 L23.750061,6.55357073 L23.750061,1.63863171 L4.09030488,1.63863171 L4.09030488,6.55357073 Z M18.7108293,30.2731561 L18.7108293,28.8796439 C18.7108293,28.4141439 18.3337683,28.0370829 17.8682683,28.0370829 L14.7627439,28.0370829 L14.7627439,26.6483512 L24.5693171,26.6483512 C25.0216707,26.6483512 25.3879756,26.2814488 25.3879756,25.8290951 L25.3879756,19.2756439 C25.3879756,18.8226927 25.0216707,18.4563878 24.5693171,18.4563878 L14.7627439,18.4563878 L14.7627439,17.4602537 L24.5693171,17.4602537 C25.0216707,17.4602537 25.3879756,17.0933512 25.3879756,16.6409976 L25.3879756,10.0875463 C25.3879756,9.63519268 25.0216707,9.26829024 24.5693171,9.26829024 L14.7627439,9.26829024 L14.7627439,8.19148537 L24.5693171,8.19148537 C25.0216707,8.19148537 25.3879756,7.82518049 25.3879756,7.37222927 L25.3879756,0.81937561 C25.3879756,0.367021951 25.0216707,0.000119512195 24.5693171,0.000119512195 L3.27104878,0.000119512195 C2.81809756,0.000119512195 2.45179268,0.367021951 2.45179268,0.81937561 L2.45179268,7.37222927 C2.45179268,7.82518049 2.81809756,8.19148537 3.27104878,8.19148537 L13.077622,8.19148537 L13.077622,9.26829024 L3.27104878,9.26829024 C2.81809756,9.26829024 2.45179268,9.63519268 2.45179268,10.0875463 L2.45179268,16.6409976 C2.45179268,17.0933512 2.81809756,17.4602537 3.27104878,17.4602537 L13.077622,17.4602537 L13.077622,18.4563878 L3.27104878,18.4563878 C2.81809756,18.4563878 2.45179268,18.8226927 2.45179268,19.2756439 L2.45179268,25.8290951 C2.45179268,26.2814488 2.81809756,26.6483512 3.27104878,26.6483512 L13.077622,26.6483512 L13.077622,28.0370829 L9.60997561,28.0370829 C9.14507317,28.0370829 8.76741463,28.4141439 8.76741463,28.8796439 L8.76741463,30.2731561 L0.842560976,30.2731561 C0.377658537,30.2731561 0,30.6496195 0,31.1151195 C0,31.5812171 0.377658537,31.9576805 0.842560976,31.9576805 L8.76741463,31.9576805 L8.76741463,33.466522 C8.76741463,33.932022 9.14507317,34.3090829 9.60997561,34.3090829 L17.8682683,34.3090829 C18.3337683,34.3090829 18.7108293,33.932022 18.7108293,33.466522 L18.7108293,31.9576805 L26.656,31.9576805 C27.1215,31.9576805 27.4991585,31.5812171 27.4991585,31.1151195 C27.4991585,30.6496195 27.1215,30.2731561 26.656,30.2731561 L18.7108293,30.2731561 Z" id="Fill-12" fill="#DC572D" mask="url(#mask-2)"></path>
                </g>
            </g>
        </g>
    </g>
</svg>