<?xml version="1.0" encoding="UTF-8"?>
<svg width="115px" height="18px" viewBox="0 0 115 18" version="1.1" xmlns="http://www.w3.org/2000/svg" xmlns:xlink="http://www.w3.org/1999/xlink">
    <!-- Generator: Sketch 49.3 (51167) - http://www.bohemiancoding.com/sketch -->
    <title>Page 1</title>
    <desc>Created with Sketch.</desc>
    <defs>
        <polygon id="path-1" points="0.77624445 0.5068 11.4059 0.5068 11.4059 12 0.77624445 12"></polygon>
        <polygon id="path-3" points="0.5542 0.624 7.19956711 0.624 7.19956711 8.9294 0.5542 8.9294"></polygon>
    </defs>
    <g id="Symbols" stroke="none" stroke-width="1" fill="none" fill-rule="evenodd">
        <g id="home/top" transform="translate(-102.000000, -81.000000)">
            <g id="Page-1" transform="translate(102.000000, 80.000000)">
                <g id="Group-3" transform="translate(3.000000, 6.376400)">
                    <mask id="mask-2" fill="white">
                        <use xlink:href="#path-1"></use>
                    </mask>
                    <g id="Clip-2"></g>
                    <path d="M10.8629,8.2598 C10.5769,8.9778 10.1879,9.6288 9.5949,10.1378 C8.8699,10.7608 8.0349,11.0068 7.0869,10.8538 C6.4579,10.7508 5.8929,10.4918 5.3659,10.1458 C4.5589,9.6138 3.9059,8.9248 3.3419,8.1478 C2.4669,6.9448 1.8509,5.6138 1.4199,4.1948 C1.1409,3.2778 0.9519,2.3418 0.8679,1.3868 C0.8429,1.0948 0.8249,0.8018 0.8039,0.5068 C0.7439,1.3718 0.7839,2.2308 0.9009,3.0858 C1.0329,4.0518 1.2609,4.9938 1.5859,5.9128 C2.0809,7.3128 2.7529,8.6158 3.7049,9.7638 C4.2569,10.4288 4.8839,11.0088 5.6409,11.4398 C6.2029,11.7588 6.8009,11.9728 7.4519,11.9978 C8.2849,12.0298 9.0059,11.7448 9.6199,11.1888 C10.1889,10.6738 10.5669,10.0308 10.8409,9.3228 C11.2629,8.2348 11.4009,7.0958 11.4059,5.9138 C11.3939,5.9938 11.3829,6.0518 11.3759,6.1098 C11.2949,6.8478 11.1379,7.5688 10.8629,8.2598" id="Fill-1" fill="#FFFFFF" mask="url(#mask-2)"></path>
                </g>
                <g id="Group-6" transform="translate(10.000000, 0.376400)">
                    <mask id="mask-4" fill="white">
                        <use xlink:href="#path-3"></use>
                    </mask>
                    <g id="Clip-5"></g>
                    <path d="M7.1222,3.2754 C6.9692,2.4674 6.5822,1.7994 5.9072,1.3154 C5.2532,0.8464 4.5072,0.6644 3.7192,0.6294 C2.8902,0.5924 2.0812,0.7254 1.2892,0.9584 C1.0422,1.0304 0.7992,1.1134 0.5542,1.1904 C0.5722,1.2084 0.5842,1.2074 0.5962,1.2044 C1.2542,1.0444 1.9182,0.9484 2.5982,0.9704 C3.0092,0.9844 3.4142,1.0354 3.8072,1.1574 C5.1402,1.5704 5.9132,2.4664 6.1082,3.8524 C6.2002,4.5064 6.1282,5.1524 5.9762,5.7904 C5.7472,6.7484 5.3402,7.6294 4.8342,8.4684 C4.8032,8.5214 4.7722,8.5744 4.7472,8.6174 C4.9482,8.7214 5.1422,8.8224 5.3472,8.9294 C5.3482,8.9294 5.3572,8.9214 5.3642,8.9104 C6.0172,7.9854 6.5622,7.0044 6.8972,5.9194 C7.1642,5.0544 7.2932,4.1764 7.1222,3.2754" id="Fill-4" fill="#FFFFFF" mask="url(#mask-4)"></path>
                </g>
                <path d="M6.9185,4.603 C8.8015,4.958 10.5215,5.701 12.0855,6.805 C12.2615,6.929 12.4315,7.062 12.6035,7.19 C12.6075,7.185 12.6125,7.181 12.6165,7.176 C12.5475,7.112 12.4805,7.045 12.4095,6.982 C10.9265,5.653 9.2165,4.735 7.3065,4.187 C5.9815,3.806 4.6355,3.635 3.2605,3.837 C3.0225,3.873 2.7875,3.931 2.5295,3.983 C2.7635,4.22 2.8885,4.483 2.9225,4.79 C2.9535,4.782 2.9725,4.778 2.9905,4.771 C3.5655,4.567 4.1625,4.472 4.7695,4.444 C5.4915,4.411 6.2095,4.468 6.9185,4.603" id="Fill-7" fill="#FFFFFF"></path>
                <path d="M14.2374,11.8129 C13.5584,11.8109 13.1264,11.2639 13.1264,10.7009 C13.1254,10.0889 13.6264,9.5859 14.2374,9.5859 C14.8114,9.5869 15.3484,10.0269 15.3514,10.6959 C15.3544,11.3239 14.8734,11.8149 14.2374,11.8129 M14.2684,9.2079 C13.4164,9.1929 12.7454,9.8869 12.7464,10.6999 C12.7474,11.5519 13.4664,12.2139 14.2394,12.1859 C15.0454,12.2129 15.7274,11.5089 15.7314,10.7089 C15.7354,9.9269 15.0984,9.2209 14.2684,9.2079" id="Fill-9" fill="#FFFFFF"></path>
                <path d="M0.9352,8.7739 C0.7212,8.0979 0.6582,7.4149 0.8862,6.7299 C0.9662,6.4879 1.0912,6.2589 1.1882,6.0399 C1.0632,5.9419 0.9132,5.8499 0.7972,5.7259 C0.6822,5.6039 0.6022,5.4489 0.5062,5.3089 C0.3592,5.5089 0.2412,5.7369 0.1582,5.9829 C-0.0828,6.6909 -0.0288,7.3939 0.1912,8.0939 C0.4182,8.8149 0.8022,9.4519 1.2672,10.0419 C1.6342,10.5079 2.0492,10.9289 2.5112,11.3079 C2.4192,11.2039 2.3252,11.1009 2.2342,10.9949 C1.6692,10.3329 1.2012,9.6119 0.9352,8.7739" id="Fill-11" fill="#FFFFFF"></path>
                <path d="M1.6915,3.9389 C1.1665,3.9389 0.7335,4.3629 0.7375,4.8829 C0.7405,5.4029 1.1265,5.8459 1.6965,5.8429 C2.2795,5.8399 2.6395,5.3779 2.6455,4.8929 C2.6465,4.3639 2.2215,3.9399 1.6915,3.9389" id="Fill-13" fill="#FFFFFF"></path>
                <path d="M12.9649,11.935 C12.8699,11.803 12.7809,11.679 12.6899,11.551 C11.2669,12.957 9.6649,14.099 7.8139,14.877 C9.7609,14.296 11.4419,13.251 12.9649,11.935" id="Fill-15" fill="#FFFFFF"></path>
                <path d="M49.9659,11.3022 C51.1749,10.9492 51.9499,10.0442 52.0609,8.8502 C52.1819,7.5482 51.6269,6.5402 50.4759,5.9462 C49.5649,5.4752 48.5779,5.3532 47.5789,5.3412 C45.6979,5.3192 43.8159,5.3322 41.9339,5.3402 C41.8339,5.3412 41.7009,5.4022 41.6389,5.4802 C41.1119,6.1402 40.5979,6.8112 40.0809,7.4792 C40.0449,7.5252 40.0179,7.5772 39.9689,7.6552 L40.2619,7.6552 C42.7099,7.6552 45.1569,7.6492 47.6049,7.6612 C47.9419,7.6622 48.2889,7.7202 48.6119,7.8162 C49.0069,7.9332 49.2219,8.2412 49.2359,8.6592 C49.2479,9.0542 49.0489,9.3502 48.6929,9.4812 C48.3709,9.5992 48.0189,9.6982 47.6789,9.6992 C45.2079,9.7182 42.7359,9.7092 40.2639,9.7092 L39.9579,9.7092 L39.9579,14.2462 L42.6919,14.2462 L42.6919,11.9232 C42.7659,11.9132 42.8039,11.9042 42.8429,11.9042 C44.1589,11.9032 45.4749,11.9002 46.7899,11.9082 C46.8829,11.9092 46.9989,11.9792 47.0619,12.0522 C47.6379,12.7232 48.2079,13.4002 48.7729,14.0812 C48.8779,14.2072 48.9819,14.2682 49.1539,14.2672 C50.2219,14.2582 51.2899,14.2632 52.3589,14.2622 C52.4259,14.2622 52.4939,14.2562 52.6389,14.2482 C51.6669,13.2532 50.7409,12.3052 49.8129,11.3542 C49.8519,11.3412 49.9079,11.3192 49.9659,11.3022" id="Fill-17" fill="#FFFFFF"></path>
                <path d="M33.3814,6.1821 C32.9544,5.5661 32.3944,5.1821 31.6074,5.1881 C30.7974,5.1941 30.2464,5.6251 29.8074,6.2421 C27.9514,8.8521 26.1014,11.4661 24.2494,14.0791 C24.2144,14.1281 24.1884,14.1831 24.1424,14.2621 L24.4074,14.2621 C25.3164,14.2621 26.2254,14.2561 27.1344,14.2671 C27.3254,14.2701 27.4344,14.2031 27.5414,14.0511 C28.8384,12.2071 30.1424,10.3681 31.4444,8.5271 C31.4834,8.4731 31.5294,8.4241 31.5854,8.3581 C32.4134,9.5741 33.2264,10.7671 34.0484,11.9741 C33.9984,11.9831 33.9754,11.9901 33.9534,11.9901 C32.7894,11.9851 31.6264,11.9821 30.4624,11.9721 C30.3234,11.9711 30.2284,12.0011 30.1424,12.1221 C29.6804,12.7721 29.2084,13.4131 28.7404,14.0591 C28.7014,14.1131 28.6714,14.1731 28.6234,14.2521 L38.9594,14.2521 C38.7374,13.9311 38.5394,13.6441 38.3414,13.3581 C36.6884,10.9651 35.0374,8.5721 33.3814,6.1821" id="Fill-19" fill="#FFFFFF"></path>
                <path d="M106.5397,5.3559 C106.4357,5.3419 106.4057,5.3349 106.3767,5.3349 C105.2917,5.3349 104.2077,5.3319 103.1237,5.3399 C103.0267,5.3409 102.9107,5.4039 102.8367,5.4729 C102.2937,5.9889 101.7597,6.5129 101.2207,7.0349 C100.8507,7.3929 100.4777,7.7499 100.0987,8.1149 C99.1977,7.2329 98.3177,6.3669 97.4277,5.5109 C97.3307,5.4179 97.1697,5.3439 97.0387,5.3419 C95.9227,5.3299 94.8067,5.3349 93.6897,5.3349 C93.6237,5.3349 93.5577,5.3449 93.4327,5.3539 C95.0477,6.8549 96.6207,8.3149 98.1747,9.7589 C96.5607,11.2339 94.9347,12.7209 93.3087,14.2089 C93.3157,14.2259 93.3227,14.2439 93.3307,14.2619 C94.4207,14.2619 95.5117,14.2639 96.6027,14.2569 C96.6697,14.2569 96.7477,14.2009 96.8017,14.1499 C97.3907,13.6029 97.9767,13.0509 98.5637,12.5009 C98.9797,12.1099 99.3957,11.7189 99.8147,11.3269 C99.8587,11.3629 99.8847,11.3799 99.9077,11.4019 C100.8347,12.2989 101.7637,13.1959 102.6857,14.0989 C102.8027,14.2129 102.9147,14.2669 103.0817,14.2659 C104.2057,14.2589 105.3297,14.2629 106.4537,14.2619 C106.5287,14.2619 106.6047,14.2549 106.7497,14.2489 C105.0667,12.6789 103.4287,11.1539 101.8097,9.6449 C103.3687,8.2309 104.9337,6.8129 106.5397,5.3559" id="Fill-21" fill="#FFFFFF"></path>
                <path d="M92.3019,5.3559 L89.5359,5.3559 L89.5359,5.6619 L89.5359,9.1769 C89.5359,9.5679 89.5419,9.9589 89.5349,10.3489 C89.5169,11.3539 89.0879,11.8889 88.0899,12.0119 C87.3659,12.1009 86.6289,12.1079 85.8979,12.1049 C85.3109,12.1029 84.7199,12.0539 84.1599,11.8359 C83.7059,11.6589 83.4309,11.3349 83.3629,10.8489 C83.3389,10.6839 83.3259,10.5159 83.3249,10.3489 C83.3229,8.7869 83.3239,7.2239 83.3239,5.6619 L83.3239,5.3479 L80.5929,5.3479 C80.5869,5.4339 80.5789,5.4979 80.5789,5.5599 C80.5819,7.2179 80.5779,8.8769 80.5909,10.5349 C80.6039,12.1479 81.3799,13.2429 82.8759,13.8359 C83.7449,14.1799 84.6559,14.3219 85.5809,14.3759 C86.7929,14.4449 88.0029,14.4469 89.1929,14.1569 C90.0169,13.9559 90.7809,13.6269 91.3769,12.9969 C92.0629,12.2709 92.2949,11.3739 92.2999,10.4059 C92.3079,8.8039 92.3019,7.2019 92.3019,5.5989 L92.3019,5.3559 Z" id="Fill-23" fill="#FFFFFF"></path>
                <path d="M54.7643,5.3413 C54.6603,5.3423 54.5243,5.4173 54.4573,5.5013 C53.9373,6.1563 53.4303,6.8223 52.9203,7.4863 C52.8853,7.5313 52.8603,7.5853 52.8143,7.6623 L56.9903,7.6623 L56.9903,14.2463 L59.7423,14.2463 L59.7423,7.6543 L60.0353,7.6543 C60.8643,7.6543 61.6933,7.6403 62.5213,7.6613 C62.8233,7.6703 63.0133,7.5843 63.1923,7.3363 C63.6733,6.6733 64.1853,6.0333 64.7133,5.3473 C64.6033,5.3403 64.5493,5.3353 64.4943,5.3353 C61.2513,5.3343 58.0083,5.3333 54.7643,5.3413" id="Fill-25" fill="#FFFFFF"></path>
                <path d="M72.8356,5.3491 L70.1186,5.3491 L70.1186,14.2491 C70.1746,14.2541 70.2136,14.2611 70.2526,14.2611 C72.7796,14.2621 75.3066,14.2641 77.8346,14.2561 C77.9246,14.2561 78.0426,14.1851 78.1016,14.1111 C78.6186,13.4621 79.1256,12.8071 79.6336,12.1531 C79.6706,12.1051 79.6996,12.0521 79.7516,11.9751 L72.8356,11.9751 L72.8356,5.3491 Z" id="Fill-27" fill="#FFFFFF"></path>
                <path d="M67.944,5.3344 L65.634,5.3344 L65.634,14.2464 L68.369,14.2464 L68.369,13.9484 L68.369,5.7704 C68.369,5.3344 68.369,5.3344 67.944,5.3344" id="Fill-29" fill="#FFFFFF"></path>
                <path d="M113.5777,7.7641 C112.9687,7.7461 112.4607,7.2211 112.4647,6.6121 C112.4677,5.9861 113.0127,5.4491 113.6327,5.4591 C114.2667,5.4711 114.7777,6.0051 114.7627,6.6421 C114.7487,7.2791 114.2157,7.7831 113.5777,7.7641 M113.6237,5.1911 C112.8227,5.1871 112.2057,5.8031 112.2037,6.6111 C112.2017,7.4191 112.8157,8.0381 113.6177,8.0361 C114.4107,8.0351 115.0357,7.4041 115.0337,6.6061 C115.0317,5.8221 114.4077,5.1961 113.6237,5.1911" id="Fill-31" fill="#FFFFFF"></path>
                <path d="M113.836,6.3872 C113.702,6.5952 113.493,6.5062 113.249,6.5082 C113.285,6.3572 113.292,6.1362 113.349,6.1212 C113.487,6.0882 113.652,6.1402 113.797,6.1852 C113.831,6.1962 113.864,6.3422 113.836,6.3872 M114.028,6.6142 C114.092,6.4792 114.178,6.3242 114.159,6.1902 C114.145,6.0812 114.001,5.9272 113.895,5.9082 C113.602,5.8572 113.299,5.8662 112.992,5.8502 L112.992,7.3612 C113.081,7.3652 113.157,7.3682 113.277,7.3732 L113.277,6.7652 C113.592,6.7262 113.698,6.9392 113.78,7.1382 C113.876,7.3712 114.024,7.4192 114.272,7.3412 C114.135,7.1272 114.005,6.9222 113.872,6.7132 C113.914,6.6882 114.003,6.6662 114.028,6.6142" id="Fill-33" fill="#FFFFFF"></path>
            </g>
        </g>
    </g>
</svg>