<?xml version="1.0" encoding="UTF-8"?>
<svg width="170px" height="25px" viewBox="0 0 170 25" version="1.1" xmlns="http://www.w3.org/2000/svg" xmlns:xlink="http://www.w3.org/1999/xlink">
    <!-- Generator: Sketch 49.3 (51167) - http://www.bohemiancoding.com/sketch -->
    <title>Page 1</title>
    <desc>Created with Sketch.</desc>
    <defs>
        <filter x="-3.7%" y="-33.3%" width="107.4%" height="166.7%" filterUnits="objectBoundingBox" id="filter-1">
            <feOffset dx="0" dy="0" in="SourceAlpha" result="shadowOffsetOuter1"></feOffset>
            <feGaussianBlur stdDeviation="2" in="shadowOffsetOuter1" result="shadowBlurOuter1"></feGaussianBlur>
            <feColorMatrix values="0 0 0 0 0.0401912719   0 0 0 0 0.179411513   0 0 0 0 0.21008716  0 0 0 0.854194973 0" type="matrix" in="shadowBlurOuter1" result="shadowMatrixOuter1"></feColorMatrix>
            <feMerge>
                <feMergeNode in="shadowMatrixOuter1"></feMergeNode>
                <feMergeNode in="SourceGraphic"></feMergeNode>
            </feMerge>
        </filter>
        <polygon id="path-2" points="0.0002 0.536 26.4412 0.536 26.4412 16.7389967 0.0002 16.7389967"></polygon>
        <polygon id="path-4" points="0.7112 0.8213 21.635089 0.8213 21.635089 17 0.7112 17"></polygon>
    </defs>
    <g id="Page-1" stroke="none" stroke-width="1" fill="none" fill-rule="evenodd">
        <g id="d/home-one-page-2" transform="translate(-427.000000, -314.000000)">
            <g id="Page-1" filter="url(#filter-1)" transform="translate(430.500000, 317.500000)">
                <path d="M46.0824,11.911 C48.2404,11.282 49.6224,9.666 49.8214,7.535 C50.0374,5.213 49.0464,3.414 46.9924,2.352 C45.3664,1.513 43.6044,1.296 41.8234,1.274 C38.4654,1.233 35.1074,1.259 31.7494,1.273 C31.5704,1.273 31.3334,1.383 31.2234,1.52 C30.2824,2.699 29.3654,3.895 28.4424,5.089 C28.3784,5.171 28.3294,5.265 28.2434,5.401 L28.7654,5.401 C33.1334,5.401 37.5014,5.391 41.8694,5.414 C42.4704,5.417 43.0894,5.518 43.6654,5.69 C44.3704,5.899 44.7544,6.449 44.7784,7.196 C44.8004,7.9 44.4464,8.428 43.8114,8.661 C43.2354,8.872 42.6074,9.048 42.0014,9.052 C37.5914,9.084 33.1804,9.069 28.7694,9.069 L28.2224,9.069 L28.2224,17.165 L33.1014,17.165 L33.1014,13.018 C33.2334,13.002 33.3024,12.984 33.3724,12.984 C35.7194,12.982 38.0674,12.977 40.4154,12.993 C40.5794,12.995 40.7874,13.118 40.9004,13.249 C41.9294,14.447 42.9454,15.654 43.9534,16.87 C44.1404,17.096 44.3264,17.204 44.6324,17.201 C46.5384,17.186 48.4454,17.194 50.3524,17.193 C50.4734,17.193 50.5934,17.182 50.8524,17.169 C49.1174,15.392 47.4654,13.7 45.8084,12.004 C45.8784,11.98 45.9784,11.94 46.0824,11.911" id="Fill-1" fill="#FFFFFF"></path>
                <g id="Group-5" transform="translate(0.000000, 0.464400)">
                    <mask id="mask-3" fill="white">
                        <use xlink:href="#path-2"></use>
                    </mask>
                    <g id="Clip-4"></g>
                    <path d="M16.4872,2.3099 C15.7252,1.2099 14.7262,0.5259 13.3202,0.5359 C11.8762,0.5459 10.8922,1.3169 10.1102,2.4159 C6.7972,7.0739 3.4952,11.7399 0.1912,16.4029 C0.1292,16.4899 0.0822,16.5869 0.0002,16.7299 L0.4742,16.7299 C2.0952,16.7299 3.7172,16.7189 5.3392,16.7389 C5.6802,16.7429 5.8752,16.6229 6.0652,16.3529 C8.3802,13.0619 10.7062,9.7789 13.0312,6.4949 C13.0992,6.3979 13.1822,6.3119 13.2822,6.1929 C14.7602,8.3619 16.2112,10.4919 17.6782,12.6459 C17.5872,12.6619 17.5482,12.6739 17.5082,12.6729 C15.4312,12.6649 13.3552,12.6599 11.2782,12.6429 C11.0312,12.6409 10.8612,12.6959 10.7082,12.9109 C9.8832,14.0689 9.0402,15.2139 8.2062,16.3659 C8.1362,16.4619 8.0812,16.5709 7.9972,16.7099 L26.4412,16.7099 C26.0452,16.1369 25.6922,15.6259 25.3392,15.1149 C22.3892,10.8459 19.4432,6.5749 16.4872,2.3099" id="Fill-3" fill="#FFFFFF" mask="url(#mask-3)"></path>
                </g>
                <path d="M147.0384,1.3007 C146.8524,1.2767 146.8004,1.2637 146.7464,1.2637 C144.8124,1.2627 142.8774,1.2567 140.9424,1.2727 C140.7694,1.2747 140.5614,1.3847 140.4314,1.5087 C139.4614,2.4287 138.5074,3.3647 137.5464,4.2947 C136.8854,4.9347 136.2214,5.5717 135.5434,6.2227 C133.9354,4.6507 132.3664,3.1027 130.7774,1.5757 C130.6044,1.4107 130.3184,1.2787 130.0824,1.2757 C128.0914,1.2517 126.1004,1.2617 124.1084,1.2637 C123.9894,1.2637 123.8714,1.2797 123.6484,1.2967 C126.5304,3.9747 129.3364,6.5807 132.1104,9.1567 C129.2314,11.7887 126.3294,14.4437 123.4264,17.0977 C123.4394,17.1287 123.4534,17.1607 123.4664,17.1937 C125.4134,17.1937 127.3594,17.1967 129.3054,17.1847 C129.4254,17.1837 129.5634,17.0827 129.6604,16.9937 C130.7124,16.0167 131.7574,15.0317 132.8044,14.0497 C133.5474,13.3527 134.2904,12.6547 135.0374,11.9537 C135.1174,12.0187 135.1634,12.0497 135.2034,12.0887 C136.8574,13.6917 138.5154,15.2907 140.1624,16.9027 C140.3694,17.1057 140.5704,17.2017 140.8664,17.1997 C142.8724,17.1877 144.8784,17.1947 146.8844,17.1937 C147.0194,17.1937 147.1544,17.1807 147.4134,17.1677 C144.4094,14.3687 141.4874,11.6467 138.5974,8.9537 C141.3804,6.4307 144.1724,3.8997 147.0384,1.3007" id="Fill-6" fill="#FFFFFF"></path>
                <g id="Group-10" transform="translate(100.000000, 0.464400)">
                    <mask id="mask-5" fill="white">
                        <use xlink:href="#path-4"></use>
                    </mask>
                    <g id="Clip-9"></g>
                    <path d="M21.6312,0.8353 L16.6952,0.8353 L16.6952,1.3813 L16.6952,7.6553 C16.6952,8.3523 16.7052,9.0493 16.6932,9.7463 C16.6622,11.5393 15.8952,12.4943 14.1152,12.7133 C12.8232,12.8723 11.5072,12.8843 10.2032,12.8793 C9.1542,12.8763 8.1002,12.7883 7.1022,12.3993 C6.2922,12.0833 5.8012,11.5053 5.6782,10.6383 C5.6362,10.3443 5.6122,10.0443 5.6122,9.7463 C5.6072,6.9583 5.6092,4.1703 5.6092,1.3813 L5.6092,0.8213 L0.7352,0.8213 C0.7252,0.9763 0.7112,1.0873 0.7112,1.1993 C0.7162,4.1583 0.7092,7.1173 0.7332,10.0763 C0.7552,12.9553 2.1402,14.9103 4.8112,15.9683 C6.3622,16.5823 7.9852,16.8353 9.6372,16.9313 C11.8002,17.0553 13.9592,17.0583 16.0822,16.5413 C17.5542,16.1823 18.9172,15.5953 19.9802,14.4703 C21.2042,13.1753 21.6182,11.5733 21.6272,9.8483 C21.6422,6.9883 21.6312,4.1293 21.6312,1.2703 L21.6312,0.8353 Z" id="Fill-8" fill="#FFFFFF" mask="url(#mask-5)"></path>
                </g>
                <path d="M54.6449,1.2743 C54.4589,1.2753 54.2159,1.4103 54.0969,1.5603 C53.1689,2.7293 52.2649,3.9173 51.3549,5.1003 C51.2919,5.1813 51.2479,5.2773 51.1659,5.4163 L58.6169,5.4163 L58.6169,17.1663 L63.5279,17.1663 L63.5279,5.4013 L64.0509,5.4013 C65.5299,5.4013 67.0089,5.3763 68.4869,5.4153 C69.0249,5.4293 69.3639,5.2763 69.6849,4.8353 C70.5419,3.6513 71.4569,2.5083 72.3989,1.2843 C72.2029,1.2723 72.1059,1.2623 72.0089,1.2623 C66.2209,1.2613 60.4329,1.2593 54.6449,1.2743" id="Fill-11" fill="#FFFFFF"></path>
                <path d="M86.8934,1.287 L82.0454,1.287 L82.0454,17.171 C82.1454,17.18 82.2144,17.192 82.2834,17.192 C86.7934,17.193 91.3034,17.196 95.8134,17.183 C95.9754,17.182 96.1854,17.056 96.2904,16.923 C97.2124,15.766 98.1174,14.596 99.0244,13.429 C99.0904,13.345 99.1434,13.25 99.2344,13.111 L86.8934,13.111 L86.8934,1.287 Z" id="Fill-13" fill="#FFFFFF"></path>
                <path d="M78.1644,1.2626 L74.0414,1.2626 L74.0414,17.1646 L78.9234,17.1646 L78.9234,16.6336 L78.9234,2.0376 C78.9234,1.2626 78.9234,1.2626 78.1644,1.2626" id="Fill-15" fill="#FFFFFF"></path>
                <g id="Group-19" transform="translate(157.000000, 0.464400)" fill="#FFFFFF">
                    <path d="M2.598,5.1331 C1.51,5.1011 0.604,4.1631 0.611,3.0761 C0.618,1.9581 1.589,1.0001 2.695,1.0211 C3.828,1.0411 4.739,1.9931 4.713,3.1301 C4.687,4.2671 3.737,5.1661 2.598,5.1331 M2.681,0.5411 C1.249,0.5341 0.149,1.6331 0.146,3.0741 C0.143,4.5191 1.238,5.6231 2.669,5.6201 C4.085,5.6161 5.2,4.4891 5.196,3.0661 C5.193,1.6671 4.078,0.5491 2.681,0.5411" id="Fill-17"></path>
                </g>
                <path d="M160.0584,3.1395 C159.8194,3.5115 159.4464,3.3535 159.0104,3.3565 C159.0744,3.0855 159.0874,2.6925 159.1894,2.6665 C159.4354,2.6075 159.7304,2.6995 159.9904,2.7795 C160.0484,2.7975 160.1094,3.0605 160.0584,3.1395 M160.4014,3.5435 C160.5164,3.3035 160.6694,3.0265 160.6364,2.7865 C160.6094,2.5945 160.3534,2.3195 160.1624,2.2855 C159.6414,2.1945 159.1004,2.2095 158.5534,2.1825 L158.5534,4.8775 C158.7104,4.8845 158.8474,4.8915 159.0614,4.9015 L159.0614,3.8135 C159.6234,3.7445 159.8134,4.1235 159.9594,4.4805 C160.1304,4.8965 160.3944,4.9815 160.8364,4.8425 C160.5934,4.4605 160.3604,4.0945 160.1224,3.7215 C160.1974,3.6765 160.3564,3.6375 160.4014,3.5435" id="Fill-20" fill="#FFFFFF"></path>
            </g>
        </g>
    </g>
</svg>