<?xml version="1.0" encoding="UTF-8"?>
<svg width="288px" height="296px" viewBox="0 0 288 296" version="1.1" xmlns="http://www.w3.org/2000/svg" xmlns:xlink="http://www.w3.org/1999/xlink">
    <!-- Generator: Sketch 49.3 (51167) - http://www.bohemiancoding.com/sketch -->
    <title>Group 29</title>
    <desc>Created with Sketch.</desc>
    <defs>
        <filter x="-10.3%" y="-8.4%" width="119.8%" height="117.4%" filterUnits="objectBoundingBox" id="filter-1">
            <feOffset dx="0" dy="1" in="SourceAlpha" result="shadowOffsetOuter1"></feOffset>
            <feGaussianBlur stdDeviation="8" in="shadowOffsetOuter1" result="shadowBlurOuter1"></feGaussianBlur>
            <feColorMatrix values="0 0 0 0 0   0 0 0 0 0   0 0 0 0 0  0 0 0 0.875198143 0" type="matrix" in="shadowBlurOuter1" result="shadowMatrixOuter1"></feColorMatrix>
            <feMerge>
                <feMergeNode in="shadowMatrixOuter1"></feMergeNode>
                <feMergeNode in="SourceGraphic"></feMergeNode>
            </feMerge>
        </filter>
        <polygon id="path-2" points="0.000168421053 1.04858947 28.2022737 1.04858947 28.2022737 18.5263158 0.000168421053 18.5263158"></polygon>
        <polygon id="path-4" points="1.29094737 1.64597895 18.5515789 1.64597895 18.5515789 16.5984 1.29094737 16.5984"></polygon>
    </defs>
    <g id="Page-1" stroke="none" stroke-width="1" fill="none" fill-rule="evenodd">
        <g id="m/home-one-page-2" transform="translate(-14.000000, -569.000000)">
            <g id="Group-29" filter="url(#filter-1)" transform="translate(31.000000, 579.412500)">
                <text id="Semiconductor-Physic" font-family="PingFangTC-Medium, PingFang TC" font-size="10.4" font-weight="400" line-spacing="11.2" fill="#FFFFFF">
                    <tspan x="90.8608" y="10.761075">Semiconductor </tspan>
                    <tspan x="109.2688" y="21.961075">Physics</tspan>
                </text>
                <g id="Group-25" transform="translate(101.600000, 36.461875)">
                    <circle id="Oval-5" stroke="#FFFFFF" stroke-width="1.6" cx="27.2" cy="27.228125" r="27.6"></circle>
                    <g id="Group-17" transform="translate(14.000000, 14.428125)" fill="#FFFFFF">
                        <g id="Group-16" transform="translate(17.670241, 8.684707) rotate(-270.000000) translate(-17.670241, -8.684707) translate(9.670241, 0.684707)">
                            <path d="M12.6004478,1.82251694 C13.438638,1.82251694 14.0946129,2.480314 14.0946129,3.316682 C14.0946129,4.15305 13.438638,4.81084706 12.6004478,4.81084706 C11.7640798,4.81084706 11.1081049,4.15305 11.1081049,3.316682 C11.1081049,2.480314 11.7640798,1.82251694 12.6004478,1.82251694 M12.6004478,6.60384513 C14.4244225,6.60384513 15.8894331,5.13883451 15.8894331,3.316682 C15.8894331,1.49452949 14.4244225,0.0295188707 12.6004478,0.0295188707 C10.7782953,0.0295188707 9.31328468,1.49452949 9.31328468,3.316682 C9.31328468,5.13883451 10.7782953,6.60384513 12.6004478,6.60384513" id="Fill-1"></path>
                            <path d="M3.3384466,1.82251694 C4.1748146,1.82251694 4.8307895,2.480314 4.8307895,3.316682 C4.8307895,4.15305 4.1748146,4.81084706 3.3384466,4.81084706 C2.5020786,4.81084706 1.84428154,4.15305 1.84428154,3.316682 C1.84428154,2.480314 2.5020786,1.82251694 3.3384466,1.82251694 M12.6004478,10.7875073 C13.438638,10.7875073 14.0946129,11.4434822 14.0946129,12.2816723 C14.0946129,13.1180403 13.438638,13.7758374 12.6004478,13.7758374 C11.7640798,13.7758374 11.1081049,13.1180403 11.1081049,12.2816723 C11.1081049,11.4434822 11.7640798,10.7875073 12.6004478,10.7875073 M3.3384466,6.60384513 C3.96526706,6.60384513 4.56293308,6.42345203 5.07131363,6.12461902 L9.70322531,10.7565307 C9.46270118,11.2047802 9.31328468,11.7131608 9.31328468,12.2816723 C9.31328468,14.1038249 10.7782953,15.5670133 12.6004478,15.5670133 C14.4244225,15.5670133 15.8894331,14.1038249 15.8894331,12.2816723 C15.8894331,10.4576977 14.4244225,8.99450922 12.6004478,8.99450922 C12.0046039,8.99450922 11.4360924,9.17308016 10.9277118,9.44275874 L6.26482353,4.78169262 C6.50534766,4.33162095 6.62560972,3.82506255 6.62560972,3.316682 C6.62560972,1.49452949 5.16059911,0.0295188707 3.3384466,0.0295188707 C1.51447194,0.0295188707 0.0512834701,1.49452949 0.0512834701,3.316682 C0.0512834701,5.13883451 1.51447194,6.60384513 3.3384466,6.60384513" id="Fill-3"></path>
                            <path d="M3.3384466,10.7873251 C4.1748146,10.7873251 4.8307895,11.4433 4.8307895,12.2814901 C4.8307895,13.1178581 4.1748146,13.7756552 3.3384466,13.7756552 C2.5020786,13.7756552 1.84428154,13.1178581 1.84428154,12.2814901 C1.84428154,11.4433 2.5020786,10.7873251 3.3384466,10.7873251 M3.3384466,15.5686533 C5.16059911,15.5686533 6.62560972,14.1036426 6.62560972,12.2814901 C6.62560972,10.4575155 5.16059911,8.994327 3.3384466,8.994327 C1.51447194,8.994327 0.0512834701,10.4575155 0.0512834701,12.2814901 C0.0512834701,14.1036426 1.51447194,15.5686533 3.3384466,15.5686533" id="Fill-5"></path>
                        </g>
                        <path d="M3.99523135,23.4476205 C3.15886334,23.4476205 2.50288844,22.7916456 2.50288844,21.9534554 C2.50288844,21.1170874 3.15886334,20.4592903 3.99523135,20.4592903 C4.83159935,20.4592903 5.4893964,21.1170874 5.4893964,21.9534554 C5.4893964,22.7916456 4.83159935,23.4476205 3.99523135,23.4476205 M3.99523135,18.6662923 C2.17307884,18.6662923 0.708068219,20.1313029 0.708068219,21.9534554 C0.708068219,23.7774301 2.17307884,25.2406185 3.99523135,25.2406185 C5.81738386,25.2406185 7.28239447,23.7774301 7.28239447,21.9534554 C7.28239447,20.1313029 5.81738386,18.6662923 3.99523135,18.6662923" id="Fill-7"></path>
                        <path d="M22.5210559,23.4476205 C21.6846879,23.4476205 21.028713,22.7916456 21.028713,21.9534554 C21.028713,21.1170874 21.6846879,20.4592903 22.5210559,20.4592903 C23.3592461,20.4592903 24.015221,21.1170874 24.015221,21.9534554 C24.015221,22.7916456 23.3592461,23.4476205 22.5210559,23.4476205 M13.2590547,23.4476205 C12.4226867,23.4476205 11.7648896,22.7916456 11.7648896,21.9534554 C11.7648896,21.1170874 12.4226867,20.4592903 13.2590547,20.4592903 C14.0954227,20.4592903 14.7513976,21.1170874 14.7513976,21.9534554 C14.7513976,22.7916456 14.0954227,23.4476205 13.2590547,23.4476205 M3.99523135,14.4844523 C3.15886334,14.4844523 2.50288844,13.8266552 2.50288844,12.9902872 C2.50288844,12.1520971 3.15886334,11.4961222 3.99523135,11.4961222 C4.83159935,11.4961222 5.4893964,12.1520971 5.4893964,12.9902872 C5.4893964,13.8266552 4.83159935,14.4844523 3.99523135,14.4844523 M2.50288844,4.02529686 C2.50288844,3.18892886 3.15886334,2.53113181 3.99523135,2.53113181 C4.83159935,2.53113181 5.4893964,3.18892886 5.4893964,4.02529686 C5.4893964,4.86166486 4.83159935,5.51946192 3.99523135,5.51946192 C3.15886334,5.51946192 2.50288844,4.86166486 2.50288844,4.02529686 M22.5210559,18.6662923 C21.028713,18.6662923 19.7440955,19.6830534 19.3541549,21.0569564 L16.3968013,21.0569564 C16.0086828,19.6830534 14.7513976,18.6662923 13.2280781,18.6662923 C12.3315791,18.6662923 11.4952111,19.0252563 10.8975451,19.6229223 L6.41504988,15.1404272 C6.98356146,14.5737377 7.28239447,13.8266552 7.28239447,12.9902872 C7.28239447,11.4961222 6.26563337,10.2115046 4.89173038,9.821564 L4.89173038,7.16304348 C6.26563337,6.774925 7.28239447,5.51946192 7.28239447,3.99614242 C7.28239447,2.17216776 5.81738386,0.708979295 3.99523135,0.708979295 C2.17307884,0.708979295 0.708068219,2.20314435 0.708068219,4.02529686 C0.708068219,5.51946192 1.72482932,6.80407944 3.09873231,7.19219792 L3.09873231,9.85254059 C1.72482932,10.2115046 0.708068219,11.4961222 0.708068219,12.9902872 C0.708068219,14.8124397 2.17307884,16.2756282 3.99523135,16.2756282 C4.32504095,16.2756282 4.62387396,16.2173193 4.92270697,16.1571883 L10.0611771,21.2956583 C10.001046,21.507028 9.97189158,21.7147534 9.97189158,21.9534554 C9.97189158,23.7774301 11.43508,25.2406185 13.2590547,25.2406185 C14.7513976,25.2406185 16.0360151,24.2256796 16.4259558,22.8499544 L19.3833093,22.8499544 C19.7732499,24.2256796 21.028713,25.2406185 22.5520325,25.2406185 C24.3760072,25.2406185 25.8373735,23.7774301 25.8373735,21.9534554 C25.8373735,20.1313029 24.3450306,18.6662923 22.5210559,18.6662923" id="Fill-10"></path>
                    </g>
                </g>
                <text id="SoC-Design" font-family="PingFangTC-Medium, PingFang TC" font-size="10.4" font-weight="400" line-spacing="11.2" fill="#FFFFFF">
                    <tspan x="17.2144" y="251.01">SoC </tspan>
                    <tspan x="10.6" y="262.21">Design</tspan>
                </text>
                <g id="Group-26" transform="translate(0.000000, 177.981875)">
                    <circle id="Oval-5" stroke="#FFFFFF" stroke-width="1.6" cx="27.2" cy="27.228125" r="27.6"></circle>
                    <g id="Group-22" transform="translate(11.200000, 11.228125)" fill="#FFFFFF">
                        <path d="M6.67580952,24.7247238 L24.7253333,24.7247238 L24.7253333,6.6752 L6.67580952,6.6752 L6.67580952,24.7247238 Z M30.5340952,16.5647238 C31.0125714,16.5647238 31.399619,16.1792 31.399619,15.7007238 C31.399619,15.2222476 31.0125714,14.8352 30.5340952,14.8352 L26.4533333,14.8352 L26.4533333,11.6214857 L30.5340952,11.6214857 C31.0125714,11.6214857 31.399619,11.2329143 31.399619,10.7544381 C31.399619,10.2774857 31.0125714,9.8904381 30.5340952,9.8904381 L26.4533333,9.8904381 L26.4533333,5.80967619 C26.4533333,5.33272381 26.0678095,4.94415238 25.5893333,4.94415238 L21.5085714,4.94415238 L21.5085714,0.864914286 C21.5085714,0.387961905 21.1230476,-0.00060952381 20.6445714,-0.00060952381 C20.1660952,-0.00060952381 19.7805714,0.387961905 19.7805714,0.864914286 L19.7805714,4.94415238 L16.5653333,4.94415238 L16.5653333,0.864914286 C16.5653333,0.387961905 16.1782857,-0.00060952381 15.6998095,-0.00060952381 C15.2213333,-0.00060952381 14.8342857,0.387961905 14.8342857,0.864914286 L14.8342857,4.94415238 L11.6205714,4.94415238 L11.6205714,0.864914286 C11.6205714,0.387961905 11.2335238,-0.00060952381 10.7550476,-0.00060952381 C10.2765714,-0.00060952381 9.88952381,0.387961905 9.88952381,0.864914286 L9.88952381,4.94415238 L5.81028571,4.94415238 C5.33180952,4.94415238 4.9447619,5.33272381 4.9447619,5.80967619 L4.9447619,9.8904381 L0.86552381,9.8904381 C0.388571429,9.8904381 0,10.2774857 0,10.7544381 C0,11.2329143 0.388571429,11.6214857 0.86552381,11.6214857 L4.9447619,11.6214857 L4.9447619,14.8352 L0.86552381,14.8352 C0.388571429,14.8352 0,15.2222476 0,15.7007238 C0,16.1792 0.388571429,16.5647238 0.86552381,16.5647238 L4.9447619,16.5647238 L4.9447619,19.7784381 L0.86552381,19.7784381 C0.388571429,19.7784381 0,20.1670095 0,20.6454857 C0,21.1224381 0.388571429,21.5110095 0.86552381,21.5110095 L4.9447619,21.5110095 L4.9447619,25.5902476 C4.9447619,26.0672 5.33180952,26.4542476 5.81028571,26.4542476 L9.88952381,26.4542476 L9.88952381,30.5350095 C9.88952381,31.0119619 10.2765714,31.3990095 10.7550476,31.3990095 C11.2335238,31.3990095 11.6205714,31.0119619 11.6205714,30.5350095 L11.6205714,26.4542476 L14.8342857,26.4542476 L14.8342857,30.5350095 C14.8342857,31.0119619 15.2213333,31.3990095 15.6998095,31.3990095 C16.1782857,31.3990095 16.5653333,31.0119619 16.5653333,30.5350095 L16.5653333,26.4542476 L19.7805714,26.4542476 L19.7805714,30.5350095 C19.7805714,31.0119619 20.1660952,31.3990095 20.6445714,31.3990095 C21.1230476,31.3990095 21.5085714,31.0119619 21.5085714,30.5350095 L21.5085714,26.4542476 L25.5893333,26.4542476 C26.0678095,26.4542476 26.4533333,26.0672 26.4533333,25.5902476 L26.4533333,21.5110095 L30.5340952,21.5110095 C31.0125714,21.5110095 31.399619,21.1224381 31.399619,20.6454857 C31.399619,20.1670095 31.0125714,19.7784381 30.5340952,19.7784381 L26.4533333,19.7784381 L26.4533333,16.5647238 L30.5340952,16.5647238 Z" id="Fill-1"></path>
                        <path d="M11.083581,16.5028571 L16.5037714,11.0841905 L19.0942476,11.0841905 L11.083581,19.0933333 L11.083581,16.5028571 Z M11.083581,11.0841905 L14.0550095,11.0841905 L11.083581,14.055619 L11.083581,11.0841905 Z M20.3193905,15.04 L15.0393905,20.3169524 L12.3072,20.3169524 L20.3193905,12.3062857 L20.3193905,15.04 Z M20.3193905,20.3169524 L17.4881524,20.3169524 L20.3193905,17.4857143 L20.3193905,20.3169524 Z M10.2180571,22.048 L21.1833905,22.048 C21.6618667,22.048 22.0473905,21.6594286 22.0473905,21.1824762 L22.0473905,10.2171429 C22.0473905,9.74019048 21.6618667,9.35314286 21.1833905,9.35314286 L10.2180571,9.35314286 C9.73958095,9.35314286 9.35253333,9.74019048 9.35253333,10.2171429 L9.35253333,21.1824762 C9.35253333,21.6594286 9.73958095,22.048 10.2180571,22.048 Z" id="Fill-3"></path>
                    </g>
                </g>
                <text id="Algorithm-Software" font-family="PingFangTC-Medium, PingFang TC" font-size="10.4" font-weight="400" line-spacing="11.2" fill="#FFFFFF">
                    <tspan x="207.4768" y="257.081075">Algorithm </tspan>
                    <tspan x="209.1096" y="268.281075">Software</tspan>
                </text>
                <g id="Group-28" transform="translate(200.000000, 177.181875)">
                    <circle id="Oval-5" stroke="#FFFFFF" stroke-width="1.6" cx="27.2" cy="27.228125" r="27.6"></circle>
                    <g id="Group-20" transform="translate(11.200000, 14.596546)">
                        <path d="M26.1487158,5.9968 C25.9095579,5.75595789 25.6434526,5.57406316 25.3436632,5.4528 C25.0472421,5.32985263 24.7491368,5.26753684 24.4207158,5.26585263 C24.0906105,5.26248421 23.7925053,5.32143158 23.4910316,5.43932632 C23.1912421,5.55553684 22.9217684,5.73406316 22.6792421,5.96985263 L22.4687158,6.17869474 L23.2400842,6.96185263 L23.4506105,6.75301053 C23.7234526,6.48690526 24.0518737,6.37069474 24.4122947,6.37406316 C24.7710316,6.37574737 25.0977684,6.52732632 25.3638737,6.76816842 C25.6316632,7.03932632 25.7495579,7.36943158 25.7461895,7.72816842 C25.7445053,8.08690526 25.5912421,8.41532632 25.3504,8.68311579 C25.0792421,8.94922105 24.7491368,9.06543158 24.3904,9.06206316 C24.0316632,9.06037895 23.7049263,8.9088 23.4371368,8.66795789 L23.0514526,8.27722105 L20.7676632,5.95806316 C20.5285053,5.71553684 20.2624,5.53532632 19.9626105,5.41237895 C19.6645053,5.29111579 19.3680842,5.2288 19.0379789,5.22543158 C18.7095579,5.22374737 18.4097684,5.28101053 18.1116632,5.39890526 C17.8101895,5.5168 17.5407158,5.69195789 17.2981895,5.93111579 C17.0590316,6.16858947 16.8771368,6.43637895 16.7541895,6.7328 C16.6329263,7.03090526 16.5706105,7.33069474 16.5689263,7.65911579 C16.5672421,7.98922105 16.6245053,8.28732632 16.7407158,8.58711579 C16.8569263,8.88690526 17.0354526,9.15806316 17.2712421,9.39890526 C17.5104,9.63974737 17.7781895,9.82164211 18.0762947,9.94290526 C18.3744,10.0641684 18.6741895,10.1264842 19.0009263,10.1281684 C19.3293474,10.1315368 19.6291368,10.0742737 19.9306105,9.95637895 C20.2287158,9.83848421 20.4998737,9.66164211 20.7407158,9.42416842 L20.9209263,9.24732632 L20.1495579,8.46416842 L19.9693474,8.64101053 C19.6981895,8.9088 19.3697684,9.02501053 19.0093474,9.02332632 C18.6506105,9.01995789 18.3238737,8.86837895 18.0560842,8.62753684 C17.7882947,8.35469474 17.6720842,8.02627368 17.6754526,7.66753684 C17.6771368,7.3088 17.8304,6.98037895 18.0695579,6.71427368 C18.3407158,6.44648421 18.6725053,6.32858947 19.0295579,6.33195789 C19.3882947,6.33532632 19.7167158,6.48690526 19.9845053,6.72943158 L20.9327158,7.6928 L22.6539789,9.43932632 C22.8914526,9.68016842 23.1592421,9.86206316 23.4573474,9.98332632 C23.7554526,10.1045895 24.0535579,10.1669053 24.3819789,10.1702737 C24.7104,10.1719579 25.0101895,10.1130105 25.3116632,9.9968 C25.6114526,9.88058947 25.8809263,9.70206316 26.1217684,9.46627368 C26.3626105,9.22711579 26.5445053,8.95932632 26.6674526,8.66122105 C26.7887158,8.36311579 26.8493474,8.06669474 26.8527158,7.73658947 C26.8544,7.40816842 26.7971368,7.10837895 26.6792421,6.80690526 C26.5630316,6.5088 26.3861895,6.23932632 26.1487158,5.9968" id="Fill-1" fill="#FFFFFF"></path>
                        <g id="Group-5" transform="translate(0.000000, 5.091200)">
                            <mask id="mask-3" fill="white">
                                <use xlink:href="#path-2"></use>
                            </mask>
                            <g id="Clip-4"></g>
                            <path d="M25.0797474,15.2970105 L25.0797474,10.6721684 C24.7799579,10.7008 24.4818526,10.7311158 24.1837474,10.7311158 L22.8683789,10.6974316 L22.8683789,15.2902737 L16.4936421,15.3273263 L16.4936421,15.4469053 C16.4936421,15.8342737 16.1955368,16.3193263 15.8064842,16.3193263 L12.3386947,16.3193263 C11.9496421,16.3193263 11.6498526,15.8342737 11.6498526,15.4469053 L11.6498526,15.3273263 L5.31216842,15.3273263 L5.31216842,3.24985263 L11.1445895,3.24985263 C11.1142737,3.03932632 11.1142737,2.85911579 11.1142737,2.65027368 C11.1142737,1.99343158 11.2035368,1.64648421 11.3534316,1.04858947 L4.68564211,1.04858947 C3.66837895,1.04858947 3.10416842,1.57574737 3.10416842,2.59132632 L3.10416842,15.3273263 L3.01490526,15.3273263 L0.000168421053,15.3273263 L0.000168421053,16.5517474 C0.000168421053,17.6582737 0.897852632,18.5559579 2.00269474,18.5256421 L5.07301053,18.5256421 L23.1311158,18.5256421 L26.1980632,18.5256421 C27.3045895,18.5256421 28.2022737,17.6296421 28.2022737,16.5231158 L28.2022737,15.2970105 L25.1690105,15.2970105 L25.0797474,15.2970105 Z" id="Fill-3" fill="#FFFFFF" mask="url(#mask-3)"></path>
                        </g>
                        <g id="Group-8" transform="translate(11.789474, 0.038568)">
                            <mask id="mask-5" fill="white">
                                <use xlink:href="#path-4"></use>
                            </mask>
                            <g id="Clip-7"></g>
                            <path d="M12.3477895,12.3693474 L8.37978947,12.3693474 L6.64673684,14.1024 L6.64673684,12.3373474 L6.07410526,12.1453474 C4.21978947,11.5188211 2.97515789,9.79418947 2.97515789,7.84892632 C2.97515789,5.35797895 5.00294737,3.33018947 7.49389474,3.33018947 L12.3477895,3.33018947 C14.8387368,3.33018947 16.8682105,5.35797895 16.8682105,7.84892632 C16.8682105,10.3415579 14.8387368,12.3693474 12.3477895,12.3693474 M12.3477895,1.64597895 L7.49389474,1.64597895 C4.07326316,1.64597895 1.29094737,4.42829474 1.29094737,7.84892632 C1.29094737,10.3095579 2.74273684,12.5175579 4.96252632,13.5162947 L4.96252632,15.4918737 C4.96252632,15.9381895 5.23031579,16.3390316 5.64631579,16.5108211 C5.78610526,16.5697684 5.93094737,16.5984 6.07578947,16.5984 C6.36378947,16.5984 6.64673684,16.4855579 6.85726316,16.2733474 L9.07705263,14.0535579 L12.3477895,14.0535579 C15.7684211,14.0535579 18.5524211,11.2712421 18.5524211,7.84892632 C18.5524211,4.42829474 15.7684211,1.64597895 12.3477895,1.64597895" id="Fill-6" fill="#FFFFFF" mask="url(#mask-5)"></path>
                        </g>
                    </g>
                </g>
                <path d="M188.8,248.421875 C172.419525,260.897682 151.219892,268.421875 128.064772,268.421875 C105.965431,268.421875 85.6478515,261.568431 69.6,250.097796" id="Stroke-1" stroke="#FFFFFF" stroke-width="1.2" stroke-linecap="round" stroke-linejoin="round"></path>
                <path d="M24,158.021875 C24,136.513303 30.769606,116.642946 42.2223485,100.569375 C51.550673,87.4782128 63.9851595,76.9065976 78.4,70.021875" id="Stroke-5" stroke="#FFFFFF" stroke-width="1.2" stroke-linecap="round" stroke-linejoin="round"></path>
                <path d="M180.8,158.021875 C180.8,136.513303 187.569606,116.642946 199.022349,100.569375 C208.350673,87.4782128 220.78516,76.9065976 235.2,70.021875" id="Stroke-5" stroke="#FFFFFF" stroke-width="1.2" stroke-linecap="round" stroke-linejoin="round" transform="translate(208.000000, 114.021875) scale(-1, 1) translate(-208.000000, -114.021875) "></path>
            </g>
        </g>
    </g>
</svg>