<?xml version="1.0" encoding="UTF-8"?>
<svg width="49px" height="49px" viewBox="0 0 49 49" version="1.1" xmlns="http://www.w3.org/2000/svg" xmlns:xlink="http://www.w3.org/1999/xlink">
    <!-- Generator: Sketch 49.3 (51167) - http://www.bohemiancoding.com/sketch -->
    <title>Group 5</title>
    <desc>Created with Sketch.</desc>
    <defs></defs>
    <g id="Page-1" stroke="none" stroke-width="1" fill="none" fill-rule="evenodd">
        <g id="d/connect-one-page-2-" transform="translate(-538.000000, -1026.000000)">
            <g id="Group-5" transform="translate(538.000000, 1026.000000)">
                <circle id="Oval-5" fill="#FFFFFF" cx="24.5" cy="24.5" r="24.5"></circle>
                <g id="Page-1" transform="translate(7.768293, 5.378049)" fill="#DC572D">
                    <path d="M13.4133317,24.7083098 C13.6625146,24.8290171 13.8866,24.8881756 14.0987341,24.8881756 C14.3783927,24.8881756 14.6461,24.8098951 14.8737707,24.6634927 L20.9461854,20.8725659 C21.3758317,20.6084439 21.6124659,20.1889561 21.6124659,19.6923829 C21.6124659,19.1958098 21.3758317,18.776322 20.9461854,18.5122 L14.871978,14.7804317 C14.4244049,14.5049561 13.8501488,14.4882244 13.4133317,14.7362122 C12.9544049,14.9579073 12.6586122,15.4383463 12.6586122,15.9606146 L12.6586122,23.4839073 C12.6586122,24.0061756 12.9550024,24.4866146 13.4133317,24.7083098" id="Fill-1"></path>
                    <path d="M16.5613427,4.75658537 C17.8723915,4.75658537 18.9396354,3.68934146 18.9396354,2.37829268 C18.9396354,1.0672439 17.8723915,0 16.5613427,0 C15.2502939,0 14.1836476,1.0672439 14.1836476,2.37829268 C14.1836476,3.68934146 15.2502939,4.75658537 16.5613427,4.75658537" id="Fill-3"></path>
                    <path d="M13.6797244,9.78416463 L19.4432,9.78416463 C19.7419805,9.78416463 19.9756268,9.51585976 19.9756268,9.17405488 C19.9756268,7.1202378 18.444078,5.44945732 16.5611634,5.44945732 C14.6782488,5.44945732 13.1467,7.1202378 13.1467,9.17405488 C13.1467,9.51585976 13.3809439,9.78416463 13.6797244,9.78416463" id="Fill-5"></path>
                    <path d="M7.0995622,29.1538646 C7.0995622,27.1000476 5.56801341,25.4298646 3.68509878,25.4298646 C1.80218415,25.4298646 0.270635366,27.1000476 0.270635366,29.1538646 C0.270635366,29.4962671 0.504281707,29.7639744 0.803062195,29.7639744 L6.5665378,29.7639744 C6.86531829,29.7639744 7.0995622,29.4962671 7.0995622,29.1538646" id="Fill-7"></path>
                    <path d="M1.30686585,22.3583415 C1.30686585,23.6699878 2.3735122,24.7366341 3.68456098,24.7366341 C4.99620732,24.7366341 6.06285366,23.6699878 6.06285366,22.3583415 C6.06285366,21.0472927 4.99620732,19.9806463 3.68456098,19.9806463 C2.3735122,19.9806463 1.30686585,21.0472927 1.30686585,22.3583415" id="Fill-9"></path>
                    <path d="M29.3475939,25.4296256 C27.4646793,25.4296256 25.9325329,27.1004061 25.9325329,29.1536256 C25.9325329,29.4966256 26.1667768,29.7643329 26.4655573,29.7643329 L32.2290329,29.7643329 C32.5278134,29.7643329 32.7620573,29.4966256 32.7620573,29.1536256 C32.7620573,27.1004061 31.229911,25.4296256 29.3475939,25.4296256" id="Fill-11"></path>
                    <path d="M31.7249902,22.3583415 C31.7249902,21.0472927 30.6583439,19.9806463 29.3472951,19.9806463 C28.0356488,19.9806463 26.9690024,21.0472927 26.9690024,22.3583415 C26.9690024,23.6699878 28.0356488,24.7366341 29.3472951,24.7366341 C30.6583439,24.7366341 31.7249902,23.6699878 31.7249902,22.3583415" id="Fill-13"></path>
                    <path d="M1.06760244,19.033572 L1.06461463,19.033572 L1.0682,19.033572 C1.11182195,19.0383524 1.15484634,19.0407427 1.19787073,19.0407427 C1.80977317,19.0407427 2.3206878,18.5818159 2.38701707,17.9729012 C2.94693171,12.8004134 6.28729756,8.34679146 11.1048341,6.35034024 C11.4006268,6.22784024 11.6300902,5.99777927 11.7525902,5.70258415 C11.8750902,5.40738902 11.8744927,5.08171829 11.7525902,4.78652317 C11.6300902,4.49192561 11.4000293,4.26186463 11.1042366,4.13936463 C10.8084439,4.0174622 10.4827732,4.01686463 10.1887732,4.1399622 C4.56393171,6.47104756 0.662456098,11.6728159 0.00693170732,17.7147549 C-0.0271292683,18.0332549 0.064297561,18.3451817 0.264480488,18.5943646 C0.465260976,18.84295 0.750297561,18.9989134 1.06760244,19.033572" id="Fill-15"></path>
                    <path d="M25.2842988,30.8082122 C22.7691646,32.7568585 19.7526768,33.7864561 16.5611037,33.7864561 C13.4316768,33.7864561 10.4623963,32.7927122 7.97475,30.9121878 C7.72078659,30.7191756 7.40646951,30.6367122 7.08796951,30.6803341 C6.77066463,30.7245537 6.48981098,30.890078 6.2979939,31.1452366 C6.10557927,31.3997976 6.02371341,31.7147122 6.06733537,32.0314195 C6.11155488,32.3475293 6.27648171,32.6277854 6.53164024,32.8202 C9.43757927,35.0180293 12.9064207,36.1796878 16.5611037,36.1796878 C20.2880915,36.1796878 23.8107134,34.9767976 26.7501159,32.7000902 C27.0022866,32.5034927 27.1642256,32.2208463 27.2042622,31.9047366 C27.2437012,31.5868341 27.15825,31.2731146 26.9628476,31.0209439 C26.560689,30.5004683 25.8077622,30.4060537 25.2842988,30.8082122" id="Fill-18"></path>
                    <path d="M22.8708695,4.11325122 C22.576272,3.99314146 22.2506012,3.99373902 21.9548085,4.11803171 C21.6590159,4.24172683 21.4313451,4.4717878 21.3106378,4.76698293 C21.1893329,5.06158049 21.190528,5.38725122 21.3136256,5.68184878 C21.4373207,5.9770439 21.6679793,6.20650732 21.9631744,6.3278122 C26.7621866,8.2937878 30.1186866,12.7073732 30.7222232,17.8463976 C30.7927354,18.4493366 31.3030524,18.9034829 31.9095768,18.9034829 C31.9561866,18.9034829 32.0016012,18.9004951 32.0500037,18.8951171 C32.366711,18.8580683 32.6505524,18.6997146 32.8489427,18.4481415 C33.0473329,18.1971659 33.135772,17.8840439 33.0987232,17.5673366 C32.3941988,11.5648366 28.4753939,6.40908049 22.8708695,4.11325122 Z" id="Fill-20"></path>
                </g>
            </g>
        </g>
    </g>
</svg>