<?xml version="1.0" encoding="UTF-8"?>
<svg width="49px" height="49px" viewBox="0 0 49 49" version="1.1" xmlns="http://www.w3.org/2000/svg" xmlns:xlink="http://www.w3.org/1999/xlink">
    <!-- Generator: Sketch 49.3 (51167) - http://www.bohemiancoding.com/sketch -->
    <title>Group 3</title>
    <desc>Created with Sketch.</desc>
    <defs></defs>
    <g id="Page-1" stroke="none" stroke-width="1" fill="none" fill-rule="evenodd">
        <g id="d/connect-one-page-2-" transform="translate(-437.000000, -1026.000000)">
            <g id="Group-3" transform="translate(437.000000, 1026.000000)">
                <circle id="Oval-5" fill="#FFFFFF" cx="24.5" cy="24.5" r="24.5"></circle>
                <path d="M38.8890569,20.7517709 L38.8890569,28.1815635 C38.9359807,29.1153465 38.6016488,30.0068982 37.9494084,30.6931583 C37.2690137,31.4087458 36.3006244,31.8187423 35.2935229,31.8187423 L30.1530239,31.8187423 C29.5711691,31.8187423 28.9904874,31.5718059 28.5552695,31.1371745 C27.4889268,30.1277269 26.1539455,29.5933824 24.6946162,29.5933824 C23.2352869,29.5933824 21.9003057,30.1277269 20.8292706,31.1418669 C20.3993316,31.5718059 19.8186499,31.8187423 19.2362086,31.8187423 L14.0957095,31.8187423 C12.055112,31.8187423 10.3940105,30.1582273 10.3940105,28.1176298 L10.3940105,20.7517709 C10.3940105,18.7105869 12.055112,17.0500719 14.0957095,17.0500719 L35.1873579,17.0500719 C37.2279554,17.0500719 38.8890569,18.7105869 38.8890569,20.7517709 Z M43.7791003,21.9459809 C43.6547524,20.8262624 42.7209693,19.9487879 41.6522804,19.9487879 L40.5759664,19.9487879 C40.2058552,17.3368935 37.9687644,15.3913166 35.2935229,15.3913166 L14.2018745,15.3913166 C11.5794223,15.3913166 9.34350461,17.3368935 8.92412341,19.9487879 L7.84253049,19.9487879 C6.70932142,19.9487879 5.82128906,20.8368202 5.82128906,21.9706159 L5.82128906,26.8987849 C5.82128906,28.0325805 6.70932142,28.9206129 7.84253049,28.9206129 L8.92001758,28.9206129 C9.29012882,31.5325073 11.5260465,33.4774975 14.2018745,33.4774975 L19.3423736,33.4774975 C20.3729369,33.4774975 21.3243164,33.0710204 22.0944528,32.300884 C22.8047614,31.5905754 23.7655256,31.1993485 24.8007813,31.1993485 C25.8131616,31.1993485 26.7258289,31.5712194 27.5129752,32.3061629 C28.338247,33.07278 29.2878668,33.4774975 30.2591889,33.4774975 L35.3991014,33.4774975 C38.0215537,33.4774975 40.2580579,31.5319207 40.6774391,28.9206129 L41.7584455,28.9206129 C42.8922411,28.9206129 43.7802734,28.0325805 43.7802734,26.8987849 L43.7791003,21.9459809 Z" id="Fill-1" fill="#DC572D"></path>
                <path d="M14.0013847,18.6601562 C12.5380989,18.6601562 11.3481091,19.775072 11.3481091,21.1461616 L11.3481091,28.1122448 C11.3481091,29.4833344 12.5380989,30.5982501 14.0013847,30.5982501 L19.1887393,30.5982501 C19.6253543,30.5982501 19.9592364,30.3196858 20.0520911,30.2334165 C21.2815936,29.0888663 22.9121497,28.4586392 24.6428045,28.4586392 C26.398484,28.4586392 27.9862347,29.0724026 29.2335179,30.2334165 C29.3257142,30.3190273 29.6595962,30.5982501 30.0975283,30.5982501 L35.2842244,30.5982501 C36.7475102,30.5982501 37.9375,29.4833344 37.9375,28.1122448 L37.9375,21.1461616 C37.9375,19.775072 36.7475102,18.6601562 35.2842244,18.6601562 L14.0013847,18.6601562 Z" id="Fill-4" fill="#DC572D"></path>
            </g>
        </g>
    </g>
</svg>